<svg xmlns="http://www.w3.org/2000/svg" viewBox="0 0 45.87 43.01"><defs><style>.cls-1{fill:#fff;}</style></defs><g id="レイヤー_2" data-name="レイヤー 2"><g id="レイヤー_1-2" data-name="レイヤー 1"><path class="cls-1" d="M19.71,6.55C11.39,13.78,8.17,19.86,8.17,28.39c0,7.8,3.84,13,9.56,13,8.06,0,12.48-7.8,12.48-22A101.33,101.33,0,0,0,29.17,5l2-.93c3.69,5.72,13.42,17.52,14.67,17.78L43.68,24a8,8,0,0,0-1.56-2.13c-1.09-1.14-5.67-7-7.12-9.1a44,44,0,0,1,1.66,10.77C36.66,36.3,30.32,43,18.25,43,7.8,43,1.72,36.92,1.72,26.52c0-7.07,3-12.69,10.5-19.76H2.65A10.53,10.53,0,0,0,0,7.07V4.42a14.43,14.43,0,0,0,2.65.26H19.81ZM39.57,0V6.45H36.45V0Zm6.09,0V6.45H42.54V0Z"/></g></g></svg>