<svg xmlns="http://www.w3.org/2000/svg" viewBox="0 0 34.84 37.91"><defs><style>.cls-1{fill:#fff;}</style></defs><g id="レイヤー_2" data-name="レイヤー 2"><g id="レイヤー_1-2" data-name="レイヤー 1"><path class="cls-1" d="M34.84,37.39c-2.55.1-2.75.1-5.3.31-1.82.11-5.41.21-8.79.21-7.44,0-11.29-.47-14.3-1.66C2.13,34.48,0,31.2,0,26.47A13.81,13.81,0,0,1,5.25,16,5.56,5.56,0,0,0,6.6,14.61l1.62,1.67a10,10,0,0,0-4.63,8.37c0,3,1.45,4.89,4.47,5.77,2.18.63,5.67.94,11.39.94,6.76,0,12.48-.37,15.39-1ZM6.66,2.34a19.06,19.06,0,0,0-3.12.21V.05A16.48,16.48,0,0,0,6.66.26H27.87A24.28,24.28,0,0,0,31.51,0V2.7c-4.1.11-11,3.12-16,7L14.25,8.37a90.06,90.06,0,0,1,8.58-6Z"/></g></g></svg>