<svg xmlns="http://www.w3.org/2000/svg" viewBox="0 0 35.52 36.3"><defs><style>.cls-1{fill:#fff;}</style></defs><g id="レイヤー_2" data-name="レイヤー 2"><g id="レイヤー_1-2" data-name="レイヤー 1"><path class="cls-1" d="M17.84,0A17.72,17.72,0,0,1,35.52,18c0,10.15-7.7,18.26-17.68,18.26A17.88,17.88,0,0,1,0,18.1,17.85,17.85,0,0,1,17.84,0Zm-.05,34c8.83.05,15-7.33,15-15.91,0-8.38-6-15.86-14.92-15.86-8.43,0-15.08,6.81-15.08,16S9.67,34,17.79,34Zm8.26-6.81a13.1,13.1,0,0,1-7.22,1.87C12,29.07,8.06,24.39,8.06,18.41c0-6.81,5.3-11,11.18-11A12.29,12.29,0,0,1,25.69,9l-.62,2.18a12.48,12.48,0,0,0-5.73-1.4c-5.66,0-8.42,3.74-8.42,8.47s3,8.48,8.48,8.48a11.7,11.7,0,0,0,6-1.61Z"/></g></g></svg>