<svg xmlns="http://www.w3.org/2000/svg" viewBox="0 0 46.23 47.53"><defs><style>.cls-1{fill:#ddd;}</style></defs><g id="レイヤー_2" data-name="レイヤー 2"><g id="レイヤー_1-2" data-name="レイヤー 1"><path class="cls-1" d="M2.6,22.88a14.87,14.87,0,0,0-2.6.26v-2.6a14.32,14.32,0,0,0,2.6.26H41.29a11.51,11.51,0,0,0,2.6-.26v2.6a11.79,11.79,0,0,0-2.6-.26h-14c-.15,13.73-5.82,20.49-20,23.87a9.78,9.78,0,0,0-2.18.78l-.89-2.24c3.43-.15,8.37-3,10.92-6.34,3.23-3.9,4.47-8.27,4.58-16.07ZM39.16,10.09a15.36,15.36,0,0,0-2.6-.26H7.28a14.87,14.87,0,0,0-2.6.26V7.49a16.46,16.46,0,0,0,2.6.26H36.56a15.28,15.28,0,0,0,2.6-.26ZM40,0V6.4H36.92V0Zm6.19,0V6.4H43.11V0Z"/></g></g></svg>