<svg xmlns="http://www.w3.org/2000/svg" viewBox="0 0 203.52 203.52"><defs><style>.cls-1{fill:#fff;}.cls-2{fill:#333;}</style></defs><g id="レイヤー_2" data-name="レイヤー 2"><g id="レイヤー_1-2" data-name="レイヤー 1"><rect id="favicon-bg" class="cls-1" width="203.52" height="203.52" rx="20"/><path class="cls-2" d="M83.28,86.17c-4.52.19-4.88.19-9.4.56-3.23.18-9.59.37-15.58.37-13.18,0-20-.83-25.34-2.95C25.31,81,21.53,75.21,21.53,66.82,21.53,60,25,53,30.84,48.29a10.09,10.09,0,0,0,2.39-2.48l2.86,2.94a17.81,17.81,0,0,0-8.2,14.84c0,5.26,2.58,8.67,7.93,10.23,3.87,1.11,10,1.66,20.18,1.66,12,0,22.12-.64,27.28-1.84ZM33.33,24.05a35.55,35.55,0,0,0-5.53.37V20a29.6,29.6,0,0,0,5.53.37h37.6a45,45,0,0,0,6.45-.46V24.7C70.1,24.88,57.84,30.23,49,37.14l-2.22-2.39A159.28,159.28,0,0,1,62,24.05Z"/><path class="cls-2" d="M136.87,20.14a20.47,20.47,0,0,0-.46-4.61H149a25.64,25.64,0,0,0-.46,4.61V44.38a245,245,0,0,1,25.53-7.19,15.66,15.66,0,0,0,3.5-1.29l1.29,4.88-1,.09c-9.76.93-28.38,6.18-39.81,11.34-10.14,4.52-14.75,9.68-14.75,16.41,0,8.38,7.93,11.7,28.11,11.7a191.61,191.61,0,0,0,26.73-1.66V90.74c-1.38,0-1.75,0-3.13.09h-1.2l-4.06.18c-7.18.28-14.1.46-19.63.46C127.66,91.47,116,84.93,116,72c0-10.05,6.36-17.24,20.83-23.41Z"/><path class="cls-2" d="M12.08,122.9l.74.09a19,19,0,0,0,3.13.28H30.88c1.94-8,2.95-13,3.41-16.32l12.26,2.49A20.29,20.29,0,0,0,45,114.51c-.84,3.6-.84,3.87-1.2,5.44a19.22,19.22,0,0,0-.83,3.32H67.2a28.39,28.39,0,0,0,4.6-.46v4.61a20.42,20.42,0,0,0-4.6-.47H42.13C36.88,148.34,31.07,168.25,27,179.3a44.13,44.13,0,0,0-1.38,4.7l-12.07-3.68C15.68,177.83,23,154.05,30,127H16a20.56,20.56,0,0,0-4.61.47v-4.61ZM88.49,184c-3.69.1-5.81.1-7.84.19-2.76.18-12.26.37-15.66.37-14.94,0-22.68-5.26-22.68-15.21,0-5.62,2.4-10,7.74-14.38a12.54,12.54,0,0,0,2.49-2.58l2.86,2.77c-4.15,2.49-6.73,6.45-6.73,10.41,0,5.9,4.89,8.3,16.78,8.3a213,213,0,0,0,23-1.11ZM55.31,140.78a40,40,0,0,0-5.53.37v-4.43a39.26,39.26,0,0,0,5.53.37H81.58a22.92,22.92,0,0,0,4.42-.46v4.15a50.41,50.41,0,0,0-20,7.1l-1.75-2.49a60.93,60.93,0,0,1,8.2-4.61Z"/><path class="cls-2" d="M145.81,121.38c-14.75,12.81-20.46,23.59-20.46,38.71,0,13.82,6.82,22.95,17,22.95,14.28,0,22.12-13.83,22.12-39a181.94,181.94,0,0,0-1.84-25.44l3.59-1.66c6.54,10.14,23.78,31.06,26,31.53l-3.87,3.87a13.74,13.74,0,0,0-2.76-3.78c-1.94-2-10-12.45-12.63-16.13a78.1,78.1,0,0,1,3,19.08c0,22.58-11.25,34.47-32.63,34.47-18.52,0-29.31-10.79-29.31-29.22,0-12.54,5.26-22.49,18.62-35h-17a18.71,18.71,0,0,0-4.7.55v-4.7a25.91,25.91,0,0,0,4.7.46H146ZM181,109.77v11.42h-5.53V109.77Zm10.78,0v11.42h-5.53V109.77Z"/></g></g></svg>