<svg xmlns="http://www.w3.org/2000/svg" viewBox="0 0 203.52 203.52"><defs><style>.cls-1{fill:#fff;}.cls-2{fill:#333;}</style></defs><g id="レイヤー_2" data-name="レイヤー 2"><g id="レイヤー_1-2" data-name="レイヤー 1"><rect id="favicon-bg" class="cls-1" width="203.52" height="203.52" rx="20"/><path class="cls-2" d="M82.36,85.45c-4.74.19-5.13.19-9.87.58-3.39.19-10.07.38-16.36.38-13.84,0-21-.87-26.61-3.09-8-3.29-12-9.39-12-18.2,0-7.16,3.68-14.51,9.77-19.45a10.45,10.45,0,0,0,2.52-2.61l3,3.1A18.67,18.67,0,0,0,24.2,61.74c0,5.51,2.71,9.09,8.32,10.74,4.06,1.16,10.55,1.74,21.19,1.74,12.58,0,23.23-.68,28.65-1.94ZM29.91,20.22a36.62,36.62,0,0,0-5.81.39V16a31.49,31.49,0,0,0,5.81.39H69.39a46.27,46.27,0,0,0,6.77-.48v5c-7.64.19-20.51,5.8-29.8,13.06L44,31.45A165.11,165.11,0,0,1,60,20.22Z"/><path class="cls-2" d="M138.63,16.11a21.48,21.48,0,0,0-.49-4.84H151.4a27.38,27.38,0,0,0-.48,4.84V41.56A261,261,0,0,1,177.72,34a15.92,15.92,0,0,0,3.68-1.35l1.35,5.12-1.06.1c-10.26,1-29.81,6.48-41.81,11.9C129.24,54.53,124.4,60,124.4,67c0,8.81,8.32,12.29,29.52,12.29A202.07,202.07,0,0,0,182,77.56V90.24c-1.45,0-1.84,0-3.29.09h-1.26l-4.26.19c-7.55.29-14.8.49-20.61.49-23.61,0-35.8-6.87-35.8-20.42,0-10.55,6.67-18.1,21.87-24.58Z"/><path class="cls-2" d="M7.6,124l.77.09a20.12,20.12,0,0,0,3.3.29H27.34c2-8.42,3.1-13.64,3.58-17.13l12.87,2.62a21.87,21.87,0,0,0-1.64,5.32c-.87,3.77-.87,4.06-1.26,5.71a22.55,22.55,0,0,0-.87,3.48H65.47a29.68,29.68,0,0,0,4.84-.48v4.84a21.48,21.48,0,0,0-4.84-.49H39.15c-5.52,22.45-11.61,43.36-15.87,55a44.25,44.25,0,0,0-1.45,4.93L9.15,184.29c2.22-2.61,9.87-27.58,17.22-56H11.67a21.37,21.37,0,0,0-4.84.49v-4.84Zm80.22,64.15c-3.87.1-6.09.1-8.22.2-2.9.19-12.87.39-16.45.39-15.68,0-23.81-5.52-23.81-16,0-5.9,2.52-10.55,8.13-15.1A13.23,13.23,0,0,0,50.08,155l3,2.9c-4.35,2.62-7.06,6.78-7.06,10.94,0,6.19,5.13,8.71,17.61,8.71a224.37,224.37,0,0,0,24.19-1.16ZM53,142.78a42.87,42.87,0,0,0-5.81.39v-4.65a41.86,41.86,0,0,0,5.81.39H80.57a23.55,23.55,0,0,0,4.64-.49v4.36a52.84,52.84,0,0,0-21,7.45l-1.84-2.61A64.69,64.69,0,0,1,71,142.78Z"/><path class="cls-2" d="M148,122.41c-15.48,13.45-21.48,24.77-21.48,40.64,0,14.52,7.16,24.1,17.81,24.1,15,0,23.22-14.52,23.22-40.94a190.73,190.73,0,0,0-1.93-26.7l3.77-1.75c6.87,10.65,25,32.62,27.29,33.1l-4.07,4.06a14.39,14.39,0,0,0-2.9-4c-2-2.13-10.55-13.07-13.26-16.94a81.37,81.37,0,0,1,3.1,20c0,23.71-11.81,36.2-34.26,36.2-19.45,0-30.77-11.33-30.77-30.68,0-13.16,5.52-23.61,19.55-36.77H116.27a19.55,19.55,0,0,0-4.93.58v-4.94a27.47,27.47,0,0,0,4.93.48h31.94Zm37-12.19v12h-5.81v-12Zm11.32,0v12h-5.8v-12Z"/></g></g></svg>