<svg xmlns="http://www.w3.org/2000/svg" viewBox="0 0 170.46 75.42"><g id="レイヤー_2" data-name="レイヤー 2"><g id="レイヤー_1-2" data-name="レイヤー 1"><path d="M24,26.3c-1.57.07-1.7.07-3.26.19-1.12.07-3.33.13-5.41.13-4.58,0-6.94-.29-8.8-1a6,6,0,0,1-4-6,8.5,8.5,0,0,1,3.23-6.43,3.57,3.57,0,0,0,.84-.86l1,1A6.18,6.18,0,0,0,4.8,18.46,3.41,3.41,0,0,0,7.55,22a27.67,27.67,0,0,0,7,.58A50.23,50.23,0,0,0,24,22ZM6.69,4.74a12.84,12.84,0,0,0-1.92.12V3.33a10.86,10.86,0,0,0,1.92.13h13A16.23,16.23,0,0,0,22,3.3V5C19.45,5,15.2,6.88,12.13,9.28l-.77-.83a52.74,52.74,0,0,1,5.28-3.71Z"/><path d="M57.44,2.14a7.05,7.05,0,0,0-.16-1.6h4.38a9.75,9.75,0,0,0-.16,1.6v8.42a88.44,88.44,0,0,1,8.87-2.5,5.18,5.18,0,0,0,1.21-.44L72,9.31l-.35,0a54.85,54.85,0,0,0-13.82,3.94c-3.52,1.57-5.12,3.36-5.12,5.69,0,2.92,2.75,4.07,9.76,4.07a65.6,65.6,0,0,0,9.27-.58v4.19a9.75,9.75,0,0,0-1.08,0h-.42l-1.41.06c-2.49.1-4.89.16-6.81.16-7.81,0-11.84-2.27-11.84-6.75,0-3.49,2.21-6,7.23-8.13Z"/><path d="M95,5.54l.26,0a7.14,7.14,0,0,0,1.08.09h5.19c.67-2.78,1-4.51,1.18-5.66L107,.86a7.49,7.49,0,0,0-.55,1.76c-.28,1.25-.28,1.35-.41,1.89a5.86,5.86,0,0,0-.29,1.15h8.41a9.64,9.64,0,0,0,1.6-.16V7.1a7.61,7.61,0,0,0-1.6-.16h-8.7c-1.82,7.43-3.84,14.34-5.25,18.18a15.23,15.23,0,0,0-.48,1.63l-4.19-1.28c.74-.86,3.27-9.12,5.7-18.53H96.38a7.68,7.68,0,0,0-1.6.16V5.5Zm26.53,21.21c-1.28,0-2,0-2.72.06-1,.07-4.26.13-5.44.13-5.19,0-7.87-1.82-7.87-5.28a6.13,6.13,0,0,1,2.68-5,4.23,4.23,0,0,0,.87-.9l1,1a4.43,4.43,0,0,0-2.34,3.62c0,2,1.7,2.88,5.83,2.88a75.79,75.79,0,0,0,8-.38Zm-11.52-15a13.55,13.55,0,0,0-1.92.13V10.33a13.17,13.17,0,0,0,1.92.13h9.12a7.71,7.71,0,0,0,1.53-.16v1.44a17.46,17.46,0,0,0-6.94,2.47l-.61-.87a23,23,0,0,1,2.85-1.6Z"/><path d="M154.37,4.7c-5.12,4.45-7.11,8.2-7.11,13.44,0,4.8,2.37,8,5.89,8,5,0,7.68-4.8,7.68-13.54a62.13,62.13,0,0,0-.64-8.83l1.25-.57c2.27,3.52,8.25,10.78,9,10.94l-1.34,1.34a5,5,0,0,0-1-1.31c-.67-.7-3.49-4.32-4.39-5.6a26.75,26.75,0,0,1,1,6.63c0,7.84-3.91,12-11.33,12C147,27.13,143.3,23.39,143.3,17c0-4.35,1.82-7.81,6.46-12.16h-5.89a6.94,6.94,0,0,0-1.63.19V3.39a8.75,8.75,0,0,0,1.63.16h10.56Zm12.22-4v4h-1.92v-4Zm3.74,0v4h-1.92v-4Z"/><path d="M1.6,60.16a9,9,0,0,0-1.6.16v-1.6a9.64,9.64,0,0,0,1.6.16H25.41a7.05,7.05,0,0,0,1.6-.16v1.6a7.22,7.22,0,0,0-1.6-.16H16.8c-.1,8.45-3.58,12.61-12.32,14.69a5.93,5.93,0,0,0-1.34.48L2.59,74c2.11-.1,5.15-1.86,6.72-3.9,2-2.4,2.75-5.09,2.82-9.89Zm22.49-7.87a9.13,9.13,0,0,0-1.6-.16h-18a9,9,0,0,0-1.6.16v-1.6a10.44,10.44,0,0,0,1.6.16h18a9.54,9.54,0,0,0,1.6-.16Zm.55-6.21V50H22.72V46.08Zm3.81,0V50H26.53V46.08Z"/><path d="M52.74,51.07a8.26,8.26,0,0,0-.2-1.6H57a8.68,8.68,0,0,0-.16,1.6v5.51h8.35V51.07a5.79,5.79,0,0,0-.1-1L65,49.57v-.1h4.48l0,.26,0,.29a5.56,5.56,0,0,0-.1,1v5.51h4.16a9.64,9.64,0,0,0,1.6-.16v1.63L75,58,74.56,58a7,7,0,0,0-1.09-.1H69.31v3.27c.06,7.87-3.74,12.19-12.13,13.76a5.35,5.35,0,0,0-1.44.45l-.48-1.41a11.07,11.07,0,0,0,7.46-4c1.79-2.24,2.43-4.61,2.43-8.77v-3.3H56.8v6a8.43,8.43,0,0,0,.16,1.6H52.54a8.26,8.26,0,0,0,.2-1.6v-6H48.29a8.17,8.17,0,0,0-1.6.2V56.42a9.64,9.64,0,0,0,1.6.16h4.45ZM72.8,48v3.94H70.88V48Zm3.74,0v3.94H74.62V48Z"/><path d="M95,63.49c2.91-.07,9.28-3,13.21-6.15,3.17-2.4,6.75-6.14,7.78-8.06l3.68,3.26a6.59,6.59,0,0,0-1.28,1.19A37,37,0,0,1,111.78,59V73.82a8.68,8.68,0,0,0,.16,1.6h-4.48a9.86,9.86,0,0,0,.16-1.6V61.15A39.36,39.36,0,0,1,96.9,64.38a5,5,0,0,0-1.48.42Z"/><path d="M152.51,60.32c-1.85-3.1-6.3-7.36-8.57-8.22l1.15-1.6a6.26,6.26,0,0,0,1.66.89,43.79,43.79,0,0,1,8.83,5.19Zm-7.17,9.73c2,.09,7-1.16,10.21-2.53,5.7-2.47,9.76-6.72,11.14-11.71a5.4,5.4,0,0,0,.22-1.35l1.38.52a5.56,5.56,0,0,0-.52,1.76c-1.15,5.69-3.74,9.79-8.06,12.7A31.52,31.52,0,0,1,148.58,74a10.67,10.67,0,0,0-1.48.42l-.32.12Z"/></g></g></svg>