<svg id="レイヤー_1" data-name="レイヤー 1" xmlns="http://www.w3.org/2000/svg" viewBox="0 0 170.46 75.42"><path d="M94.9,256.05c-1.57.06-1.69.06-3.26.19-1.12.07-3.33.13-5.41.13-4.58,0-6.94-.29-8.8-1a6,6,0,0,1-4-6,8.5,8.5,0,0,1,3.23-6.43,3.57,3.57,0,0,0,.84-.86l1,1a6.18,6.18,0,0,0-2.85,5.15,3.41,3.41,0,0,0,2.75,3.55,27.67,27.67,0,0,0,7,.58,51.1,51.1,0,0,0,9.47-.64ZM77.56,234.48a12.79,12.79,0,0,0-1.92.13v-1.53a11,11,0,0,0,1.92.12h13a14.71,14.71,0,0,0,2.24-.16v1.67c-2.52.06-6.78,1.92-9.85,4.32l-.77-.83a53.82,53.82,0,0,1,5.28-3.72Z" transform="translate(-70.87 -229.75)"/><path d="M128.31,231.89a7.05,7.05,0,0,0-.16-1.6h4.38a9.64,9.64,0,0,0-.16,1.6v8.42a85.84,85.84,0,0,1,8.87-2.5,4.84,4.84,0,0,0,1.21-.45l.45,1.7-.35,0A54.85,54.85,0,0,0,128.73,243c-3.52,1.57-5.12,3.36-5.12,5.69,0,2.91,2.75,4.07,9.76,4.07a67.39,67.39,0,0,0,9.28-.58v4.19c-.48,0-.61,0-1.09,0h-.42l-1.41.07c-2.49.09-4.89.16-6.81.16-7.81,0-11.84-2.27-11.84-6.75,0-3.49,2.21-6,7.23-8.13Z" transform="translate(-70.87 -229.75)"/><path d="M165.91,235.28l.26,0a7.24,7.24,0,0,0,1.08.09h5.19c.67-2.78,1-4.51,1.18-5.66l4.26.86a7.49,7.49,0,0,0-.55,1.76c-.28,1.25-.28,1.35-.41,1.89a5.86,5.86,0,0,0-.29,1.15h8.42a9.83,9.83,0,0,0,1.6-.16v1.6a7.05,7.05,0,0,0-1.6-.16h-8.71c-1.82,7.43-3.84,14.34-5.25,18.18a15.23,15.23,0,0,0-.48,1.63l-4.19-1.28c.74-.87,3.27-9.12,5.7-18.53h-4.87a6.92,6.92,0,0,0-1.59.16v-1.6Zm26.53,21.22c-1.28,0-2,0-2.72.06-1,.07-4.26.13-5.44.13-5.19,0-7.87-1.82-7.87-5.28a6.13,6.13,0,0,1,2.68-5,4.23,4.23,0,0,0,.87-.9l1,1a4.43,4.43,0,0,0-2.34,3.62c0,2.05,1.7,2.88,5.83,2.88a72.79,72.79,0,0,0,8-.39Zm-11.52-15a13.55,13.55,0,0,0-1.92.13v-1.54a13.17,13.17,0,0,0,1.92.13H190a7.71,7.71,0,0,0,1.53-.16v1.44a17.46,17.46,0,0,0-6.94,2.47l-.61-.87a23,23,0,0,1,2.85-1.6Z" transform="translate(-70.87 -229.75)"/><path d="M225.24,234.45c-5.12,4.45-7.11,8.19-7.11,13.44,0,4.8,2.37,8,5.89,8,5,0,7.68-4.8,7.68-13.54a62.13,62.13,0,0,0-.64-8.83l1.25-.57c2.27,3.52,8.25,10.78,9,10.94L240,245.2a5,5,0,0,0-1-1.31c-.67-.7-3.49-4.32-4.38-5.6a27.09,27.09,0,0,1,1,6.63c0,7.83-3.9,12-11.33,12-6.43,0-10.17-3.74-10.17-10.14,0-4.35,1.82-7.81,6.46-12.16h-5.89a6.45,6.45,0,0,0-1.63.19v-1.63a8.75,8.75,0,0,0,1.63.16H225.3Zm12.22-4v4h-1.92v-4Zm3.75,0v4h-1.92v-4Z" transform="translate(-70.87 -229.75)"/><path d="M72.47,289.91a9,9,0,0,0-1.6.16v-1.6a9.64,9.64,0,0,0,1.6.16H96.28a7.05,7.05,0,0,0,1.6-.16v1.6a7.22,7.22,0,0,0-1.6-.16H87.67c-.1,8.44-3.58,12.6-12.32,14.68a5.93,5.93,0,0,0-1.34.48l-.55-1.37c2.11-.1,5.15-1.86,6.72-3.91,2-2.39,2.75-5.08,2.82-9.88ZM95,282a9.11,9.11,0,0,0-1.59-.16h-18a9,9,0,0,0-1.6.16v-1.6a10.44,10.44,0,0,0,1.6.16h18a9.52,9.52,0,0,0,1.59-.16Zm.55-6.21v3.93H93.59v-3.93Zm3.81,0v3.93H97.4v-3.93Z" transform="translate(-70.87 -229.75)"/><path d="M123.61,280.82a8.26,8.26,0,0,0-.2-1.6h4.42a8.68,8.68,0,0,0-.16,1.6v5.5H136v-5.5a7,7,0,0,0-.09-1.06l-.07-.44v-.1h4.48l0,.26,0,.28a5.74,5.74,0,0,0-.1,1.06v5.5h4.16a8.68,8.68,0,0,0,1.6-.16v1.64l-.1,0-.41-.06a7,7,0,0,0-1.09-.1h-4.16v3.27c.07,7.87-3.74,12.19-12.13,13.76a5.7,5.7,0,0,0-1.44.44l-.48-1.4a11.11,11.11,0,0,0,7.46-4c1.79-2.24,2.43-4.61,2.43-8.77v-3.3h-8.35v6a8.43,8.43,0,0,0,.16,1.6h-4.42a8.26,8.26,0,0,0,.2-1.6v-6h-4.45a8.17,8.17,0,0,0-1.6.2v-1.64a8.68,8.68,0,0,0,1.6.16h4.45Zm20.06-3.07v3.93h-1.92v-3.93Zm3.74,0v3.93h-1.92v-3.93Z" transform="translate(-70.87 -229.75)"/><path d="M165.85,293.24c2.91-.07,9.28-3,13.21-6.15,3.17-2.4,6.75-6.14,7.78-8.06l3.68,3.26a6.9,6.9,0,0,0-1.28,1.19,37,37,0,0,1-6.59,5.28v14.81a8.68,8.68,0,0,0,.16,1.6h-4.48a10.08,10.08,0,0,0,.16-1.6V290.9a39.36,39.36,0,0,1-10.72,3.23,4.7,4.7,0,0,0-1.48.42Z" transform="translate(-70.87 -229.75)"/><path d="M223.38,290.07c-1.85-3.11-6.3-7.36-8.57-8.23l1.15-1.6a5.89,5.89,0,0,0,1.66.9,44.27,44.27,0,0,1,8.83,5.18Zm-7.17,9.72c2,.1,7-1.15,10.21-2.52,5.7-2.47,9.76-6.72,11.14-11.71a5.46,5.46,0,0,0,.22-1.35l1.38.51a5.51,5.51,0,0,0-.51,1.76c-1.16,5.7-3.75,9.79-8.07,12.71a31.37,31.37,0,0,1-11.13,4.51,10.44,10.44,0,0,0-1.48.41l-.32.13Z" transform="translate(-70.87 -229.75)"/></svg>