<svg id="レイヤー_1" data-name="レイヤー 1" xmlns="http://www.w3.org/2000/svg" viewBox="0 0 170.44 75.45"><defs><style>.cls-1{fill:#fff;}</style></defs><g id="レイヤー_2" data-name="レイヤー 2"><g id="レイヤー_1-2" data-name="レイヤー 1-2"><path class="cls-1" d="M24,26.3c-1.57.07-1.7.07-3.26.19-1.12.07-3.33.13-5.41.13-4.58,0-6.94-.29-8.8-1a6,6,0,0,1-4-6,8.47,8.47,0,0,1,3.23-6.43,3.61,3.61,0,0,0,.84-.86l1,1a6.18,6.18,0,0,0-2.8,5.13A3.41,3.41,0,0,0,7.55,22a27.89,27.89,0,0,0,7,.58A50.64,50.64,0,0,0,24,22ZM6.69,4.74a12.38,12.38,0,0,0-1.92.12V3.33a11.2,11.2,0,0,0,1.92.13h13A16.31,16.31,0,0,0,22,3.3V5c-2.55,0-6.8,1.88-9.87,4.28l-.77-.83a53.84,53.84,0,0,1,5.28-3.71Z" transform="translate(0 0.03)"/><path class="cls-1" d="M57.44,2.14a7.18,7.18,0,0,0-.16-1.6h4.38a9.54,9.54,0,0,0-.16,1.6v8.42a87.76,87.76,0,0,1,8.87-2.5,5.15,5.15,0,0,0,1.21-.44L72,9.31h-.35a54.89,54.89,0,0,0-13.82,3.94c-3.52,1.57-5.12,3.36-5.12,5.69,0,2.92,2.75,4.07,9.76,4.07a65.29,65.29,0,0,0,9.27-.58v4.19a9.73,9.73,0,0,0-1.08,0h-.42l-1.41.06c-2.49.1-4.89.16-6.81.16-7.81,0-11.84-2.27-11.84-6.75,0-3.49,2.21-6,7.23-8.13Z" transform="translate(0 0.03)"/><path class="cls-1" d="M95,5.54h.26a6.56,6.56,0,0,0,1.08.09h5.19c.67-2.78,1-4.51,1.18-5.66L107,.86a7.2,7.2,0,0,0-.55,1.76c-.28,1.25-.28,1.35-.41,1.89a5.7,5.7,0,0,0-.29,1.15h8.41a9.54,9.54,0,0,0,1.6-.16V7.1a7.82,7.82,0,0,0-1.6-.16h-8.7c-1.82,7.43-3.84,14.34-5.25,18.18a15.24,15.24,0,0,0-.48,1.63l-4.19-1.28c.74-.86,3.27-9.12,5.7-18.53H96.38a7.82,7.82,0,0,0-1.6.16V5.5Zm26.53,21.21c-1.28,0-2,0-2.72.06-1,.07-4.26.13-5.44.13-5.19,0-7.87-1.82-7.87-5.28a6.13,6.13,0,0,1,2.68-5,4.36,4.36,0,0,0,.87-.9l1,1a4.44,4.44,0,0,0-2.34,3.62c0,2,1.7,2.88,5.83,2.88a76.37,76.37,0,0,0,8-.38ZM110,11.75a13.76,13.76,0,0,0-1.92.13V10.33a13.76,13.76,0,0,0,1.92.13h9.12a7.87,7.87,0,0,0,1.53-.16v1.44a17.42,17.42,0,0,0-6.94,2.47l-.61-.87a23.38,23.38,0,0,1,2.85-1.6Z" transform="translate(0 0.03)"/><path class="cls-1" d="M154.37,4.7c-5.12,4.45-7.11,8.2-7.11,13.44,0,4.8,2.37,8,5.89,8,5,0,7.68-4.8,7.68-13.54a62.13,62.13,0,0,0-.64-8.83l1.25-.57c2.27,3.52,8.25,10.78,9,10.94l-1.34,1.34a5.12,5.12,0,0,0-1-1.31c-.67-.7-3.49-4.32-4.39-5.6a26.6,26.6,0,0,1,1,6.63c0,7.84-3.91,12-11.33,12C147,27.13,143.3,23.39,143.3,17c0-4.35,1.82-7.81,6.46-12.16h-5.89a6.85,6.85,0,0,0-1.63.19V3.39a8.92,8.92,0,0,0,1.63.16h10.56Zm12.22-4v4h-1.92V.7Zm3.74,0v4h-1.92V.7Z" transform="translate(0 0.03)"/><path class="cls-1" d="M1.6,60.16a9.54,9.54,0,0,0-1.6.16v-1.6a9.54,9.54,0,0,0,1.6.16H25.41a7.18,7.18,0,0,0,1.6-.16v1.6a7.18,7.18,0,0,0-1.6-.16H16.8c-.1,8.45-3.58,12.61-12.32,14.69a6.5,6.5,0,0,0-1.34.48L2.59,74c2.11-.1,5.15-1.86,6.72-3.9,2-2.4,2.75-5.09,2.82-9.89Zm22.49-7.87a9.54,9.54,0,0,0-1.6-.16h-18a9.54,9.54,0,0,0-1.6.16v-1.6a10.71,10.71,0,0,0,1.6.16h18a9.54,9.54,0,0,0,1.6-.16Zm.55-6.21V50H22.72V46.08Zm3.81,0V50H26.53V46.08Z" transform="translate(0 0.03)"/><path class="cls-1" d="M52.74,51.07a7.87,7.87,0,0,0-.2-1.6H57a8.59,8.59,0,0,0-.16,1.6v5.51h8.35V51.07a5.56,5.56,0,0,0-.1-1l-.09-.5v-.1h4.48V50a5.56,5.56,0,0,0-.1,1v5.51h4.16a9.54,9.54,0,0,0,1.6-.16V58h-.58a6.59,6.59,0,0,0-1.09-.1H69.31v3.27c.06,7.87-3.74,12.19-12.13,13.76a5.24,5.24,0,0,0-1.44.45L55.26,74a11.06,11.06,0,0,0,7.46-4c1.79-2.24,2.43-4.61,2.43-8.77V57.9H56.8v6A8.59,8.59,0,0,0,57,65.5H52.54a7.87,7.87,0,0,0,.2-1.6v-6H48.29a7.87,7.87,0,0,0-1.6.2V56.42a9.54,9.54,0,0,0,1.6.16h4.45ZM72.8,48v3.94H70.88V48Zm3.74,0v3.94H74.62V48Z" transform="translate(0 0.03)"/><path class="cls-1" d="M95,63.49c2.91-.07,9.28-3,13.21-6.15,3.17-2.4,6.75-6.14,7.78-8.06l3.68,3.26a6.58,6.58,0,0,0-1.28,1.19A37,37,0,0,1,111.78,59V73.82a8.59,8.59,0,0,0,.16,1.6h-4.48a9.54,9.54,0,0,0,.16-1.6V61.15A39.39,39.39,0,0,1,96.9,64.38a4.82,4.82,0,0,0-1.48.42Z" transform="translate(0 0.03)"/><path class="cls-1" d="M152.51,60.32c-1.85-3.1-6.3-7.36-8.57-8.22l1.15-1.6a6.18,6.18,0,0,0,1.66.89,43.72,43.72,0,0,1,8.83,5.19Zm-7.17,9.73c2,.09,7-1.16,10.21-2.53,5.7-2.47,9.76-6.72,11.14-11.71a5.6,5.6,0,0,0,.22-1.35l1.38.52a5.42,5.42,0,0,0-.52,1.76c-1.15,5.69-3.74,9.79-8.06,12.7A31.46,31.46,0,0,1,148.58,74a9.59,9.59,0,0,0-1.48.42l-.32.12Z" transform="translate(0 0.03)"/></g></g></svg>