<svg xmlns="http://www.w3.org/2000/svg" viewBox="0 0 39.57 39"><defs><style>.cls-1{fill:#fff;}</style></defs><g id="レイヤー_2" data-name="レイヤー 2"><g id="レイヤー_1-2" data-name="レイヤー 1"><path class="cls-1" d="M13.94,16C10.92,10.92,3.69,4,0,2.6L1.87,0A9.81,9.81,0,0,0,4.58,1.46,71.16,71.16,0,0,1,18.93,9.88ZM2.29,31.77c3.27.16,11.44-1.87,16.59-4.1,9.25-4,15.86-10.93,18.09-19a8.94,8.94,0,0,0,.37-2.18l2.23.83a9.18,9.18,0,0,0-.83,2.86c-1.87,9.26-6.08,15.91-13.1,20.65C21.32,33.91,13.52,37,7.54,38.12a17.15,17.15,0,0,0-2.39.67L4.63,39Z"/></g></g></svg>