<svg xmlns="http://www.w3.org/2000/svg" viewBox="0 0 43.53 43.79"><defs><style>.cls-1{fill:#fff;}</style></defs><g id="レイヤー_2" data-name="レイヤー 2"><g id="レイヤー_1-2" data-name="レイヤー 1"><path class="cls-1" d="M.42,9l.41.05A11.63,11.63,0,0,0,2.6,9.2H11C12.12,4.68,12.69,1.87,13,0l6.92,1.4A11.51,11.51,0,0,0,19,4.26c-.47,2-.47,2.19-.68,3.07a12.63,12.63,0,0,0-.46,1.87H31.51a15.86,15.86,0,0,0,2.6-.26v2.6a12.06,12.06,0,0,0-2.6-.26H17.37c-3,12.07-6.24,23.3-8.53,29.54a26,26,0,0,0-.78,2.65L1.25,41.39C2.44,40,6.55,26.57,10.5,11.28H2.6a12.06,12.06,0,0,0-2.6.26V8.94ZM43.53,43.47c-2.08.06-3.28.06-4.42.11-1.56.1-6.92.21-8.84.21-8.43,0-12.8-3-12.8-8.58,0-3.18,1.36-5.67,4.37-8.12a7.52,7.52,0,0,0,1.41-1.45l1.61,1.56a7.18,7.18,0,0,0-3.8,5.87c0,3.33,2.76,4.68,9.47,4.68a122.31,122.31,0,0,0,13-.62ZM24.81,19.08a23.78,23.78,0,0,0-3.12.21V16.8a23.25,23.25,0,0,0,3.12.2H39.63a12.74,12.74,0,0,0,2.49-.26v2.34a28.4,28.4,0,0,0-11.28,4l-1-1.4a34.07,34.07,0,0,1,4.63-2.61Z"/></g></g></svg>