<svg xmlns="http://www.w3.org/2000/svg" viewBox="0 0 35.47 42.85"><defs><style>.cls-1{fill:#aaa;}</style></defs><g id="レイヤー_2" data-name="レイヤー 2"><g id="レイヤー_1-2" data-name="レイヤー 1"><path class="cls-1" d="M11.75,2.6A11.46,11.46,0,0,0,11.49,0h7.13a14.32,14.32,0,0,0-.26,2.6V16.28a138.68,138.68,0,0,1,14.4-4.06,8.16,8.16,0,0,0,2-.73l.73,2.76-.58.05c-5.51.52-16,3.48-22.46,6.4C6.71,23.24,4.11,26.16,4.11,30c0,4.74,4.47,6.61,15.86,6.61a107.45,107.45,0,0,0,15.08-.94v6.81a17.45,17.45,0,0,0-1.77.06h-.67l-2.29.1c-4.06.16-8,.26-11.08.26C6.55,42.85,0,39.16,0,31.88c0-5.67,3.59-9.73,11.75-13.21Z"/></g></g></svg>