<svg xmlns="http://www.w3.org/2000/svg" viewBox="0 0 512 511.99"><defs><style>.cls-1{fill:#091939;}</style></defs><g id="レイヤー_2" data-name="レイヤー 2"><g id="_2" data-name="2"><path class="cls-1" d="M256,0C114.61,0,0,114.62,0,256S114.61,512,256,512,512,397.38,512,256,397.39,0,256,0Zm52.86,377.12L221.8,423l1.87-35.93a135.08,135.08,0,0,1-91.58-184.84l1.44-3.3,32,13.88-1.43,3.3a100.29,100.29,0,0,0,61.49,135.33L227,323.39l90.87,48.91Zm71-67.39-1.43,3.3-32-13.88,1.43-3.3a100.29,100.29,0,0,0-61.49-135.33L285,188.59,194,139.67l9.2-4.82,17.14-9.08L290.2,89l-1.88,35.87a135.11,135.11,0,0,1,91.57,184.89Z"/></g></g></svg>