<svg xmlns="http://www.w3.org/2000/svg" viewBox="0 0 48.52 44.41"><defs><style>.cls-1{fill:#aaa;}</style></defs><g id="レイヤー_2" data-name="レイヤー 2"><g id="レイヤー_1-2" data-name="レイヤー 1"><path class="cls-1" d="M9.83,5a14.12,14.12,0,0,0-.31-2.6h7.17A15.28,15.28,0,0,0,16.43,5v9H30V5a10.8,10.8,0,0,0-.15-1.71l-.1-.73V2.39H37L37,2.81l0,.47A10.32,10.32,0,0,0,36.77,5v9h6.76a15.16,15.16,0,0,0,2.59-.26v2.65l-.15,0-.68-.11A11,11,0,0,0,43.53,16H36.77v5.3c.1,12.79-6.09,19.81-19.71,22.36a9.63,9.63,0,0,0-2.34.73l-.78-2.29c4,0,9.46-3,12.11-6.5C29,32,30,28.13,30,21.37V16H16.43v9.72a14.78,14.78,0,0,0,.26,2.6H9.52a14,14,0,0,0,.31-2.6V16H2.6a13.21,13.21,0,0,0-2.6.31V13.68a15.28,15.28,0,0,0,2.6.26H9.83Zm32.6-5V6.4H39.31V0Zm6.09,0V6.4H45.4V0Z"/></g></g></svg>